<svg width="20" height="25" viewBox="0 0 20 25" fill="none" xmlns="http://www.w3.org/2000/svg">
<path d="M10 25C7.10417 24.2708 4.71333 22.6092 2.8275 20.015C0.941667 17.4208 -0.000832781 14.5408 5.5212e-07 11.375V3.75L10 0L20 3.75V11.375C20 14.5417 19.0575 17.4221 17.1725 20.0163C15.2875 22.6104 12.8967 24.2717 10 25ZM10 22.375C12.0208 21.75 13.7083 20.5154 15.0625 18.6712C16.4167 16.8271 17.2083 14.77 17.4375 12.5H10V2.65625L2.5 5.46875V11.9375C2.5 12.0833 2.52083 12.2708 2.5625 12.5H10V22.375Z" fill="#9DFF3A"/>
</svg>
