<svg width="27" height="27" viewBox="0 0 27 27" fill="none" xmlns="http://www.w3.org/2000/svg">
<path d="M13.4375 25.9375C13.7425 25.9375 14.0262 25.7962 14.595 25.5125L19.1575 23.2413C21.1788 22.2375 22.1875 21.7338 22.1875 20.9375V10.9375M13.4375 25.9375C13.1325 25.9375 12.8488 25.7962 12.28 25.5125L7.7175 23.2413C5.69625 22.2375 4.6875 21.7338 4.6875 20.9375V10.9375M13.4375 25.9375V15.9375M22.1875 10.9375C22.1875 10.1412 21.1775 9.63875 19.1587 8.63375L14.595 6.36125C14.025 6.07875 13.7425 5.9375 13.4375 5.9375M22.1875 10.9375C22.1875 11.7338 21.1775 12.2363 19.1587 13.2413L14.595 15.5138C14.0262 15.7963 13.7425 15.9375 13.4375 15.9375M4.6875 10.9375C4.6875 10.1412 5.69625 9.6375 7.7175 8.63375L12.28 6.3625C12.8488 6.07875 13.1325 5.9375 13.4375 5.9375M4.6875 10.9375C4.6875 11.7338 5.6975 12.2363 7.71625 13.2413L12.28 15.5138C12.8488 15.7963 13.1325 15.9375 13.4375 15.9375M13.4375 5.9375V0.9375M25.9375 24.6875L22.1875 21.5625M0.9375 24.6875L4.6875 21.5625" stroke="#9DFF3A" stroke-width="1.875" stroke-linecap="round" stroke-linejoin="round"/>
</svg>
